<svg width="350" height="351" viewBox="0 0 350 351" fill="none" xmlns="http://www.w3.org/2000/svg">
<path d="M271.044 139.016V74L171.994 45.4155L72.975 74V139.016C72.975 139.016 69.23 253.368 172.025 297.947C274.788 253.368 271.044 139.016 271.044 139.016Z" fill="#1976D2"/>
<path d="M203.833 139.03H198.996V127.13C198.915 120.026 196.036 113.24 190.984 108.245C185.932 103.25 179.114 100.449 172.009 100.449C164.905 100.449 158.087 103.25 153.034 108.245C147.982 113.24 145.103 120.026 145.022 127.13V139.03H140.185C139.181 139.03 138.187 139.228 137.259 139.612C136.331 139.996 135.488 140.56 134.778 141.27C134.068 141.98 133.504 142.823 133.12 143.751C132.736 144.679 132.538 145.673 132.538 146.678V197.305C132.538 199.334 133.344 201.279 134.778 202.714C136.212 204.149 138.157 204.955 140.185 204.956H203.833C205.862 204.955 207.807 204.149 209.241 202.714C210.675 201.279 211.48 199.334 211.48 197.305V146.678C211.48 144.649 210.675 142.704 209.241 141.27C207.806 139.836 205.861 139.03 203.833 139.03ZM155.375 127.13C155.439 122.76 157.219 118.591 160.332 115.523C163.444 112.456 167.639 110.736 172.009 110.736C176.379 110.736 180.574 112.456 183.687 115.523C186.799 118.591 188.58 122.76 188.643 127.13V139.03H155.375V127.13Z" fill="white"/>
<path d="M176.431 185.902V175.423C178.8 174.405 180.746 172.601 181.939 170.315C183.131 168.029 183.499 165.401 182.979 162.876C182.46 160.35 181.084 158.081 179.086 156.452C177.087 154.823 174.588 153.933 172.009 153.933C169.431 153.933 166.931 154.823 164.933 156.452C162.934 158.081 161.559 160.35 161.039 162.876C160.519 165.401 160.887 168.029 162.08 170.315C163.273 172.601 165.218 174.405 167.587 175.423V185.902H176.431Z" fill="#1976D2"/>
<path d="M246.4 94.6045V281.077C246.4 283.165 246.81 285.231 247.609 287.16C248.407 289.088 249.577 290.841 251.053 292.317C252.528 293.793 254.28 294.964 256.208 295.763C258.136 296.562 260.203 296.974 262.29 296.974H278.04C280.344 296.975 282.554 297.891 284.183 299.521C285.812 301.151 286.727 303.361 286.727 305.665C286.727 307.969 285.812 310.179 284.183 311.809C282.554 313.439 280.344 314.355 278.04 314.355H192.724C187.327 314.355 182.76 318.576 182.599 323.973C182.522 326.606 183.494 329.161 185.301 331.077C187.108 332.992 189.602 334.112 192.234 334.19H215.023" stroke="#DFE1E5" stroke-width="5" stroke-linecap="round" stroke-linejoin="round"/>
<path d="M35.8225 306.613V300.996H186.816L262.094 301.112L291.757 330.55H91.9065L75.481 314.135L48.0935 314.009C45.1577 313.997 42.3385 312.859 40.2185 310.828L35.8225 306.613Z" fill="url(#paint0_linear)"/>
<path d="M233.376 227.296H227.209C225.945 227.296 224.92 228.321 224.92 229.586V243.526C224.92 244.79 225.945 245.815 227.209 245.815H233.376C234.641 245.815 235.665 244.79 235.665 243.526V229.586C235.665 228.321 234.641 227.296 233.376 227.296Z" fill="url(#paint1_linear)"/>
<path d="M227.203 219.526L227.238 219.467L227.283 219.397C227.763 218.658 230.335 214.675 230.314 214.693L233.464 219.617C233.8 220.174 233.979 220.812 233.982 221.462C233.953 222.413 233.554 223.315 232.871 223.977C232.188 224.639 231.274 225.01 230.323 225.01C229.371 225.01 228.457 224.639 227.774 223.977C227.091 223.315 226.693 222.413 226.664 221.462C226.656 220.779 226.843 220.107 227.203 219.526Z" fill="#FBBC05"/>
<path d="M248.371 240.369H212.219C209.059 240.369 206.497 242.931 206.497 246.092V262.668C206.497 265.828 209.059 268.39 212.219 268.39H248.371C251.531 268.39 254.093 265.828 254.093 262.668V246.092C254.093 242.931 251.531 240.369 248.371 240.369Z" fill="url(#paint2_linear)"/>
<path d="M206.258 253.518C207.225 253.549 208.174 253.252 208.95 252.675C210.193 251.843 211.655 251.4 213.15 251.4C214.645 251.4 216.107 251.843 217.35 252.675C218.144 253.165 218.718 253.518 220.024 253.518C220.985 253.546 221.927 253.248 222.698 252.675C223.94 251.842 225.402 251.397 226.898 251.397C228.394 251.397 229.856 251.842 231.098 252.675C231.893 253.165 232.466 253.518 233.772 253.518C234.733 253.546 235.675 253.248 236.446 252.675C237.688 251.842 239.15 251.397 240.646 251.397C242.142 251.397 243.604 251.842 244.846 252.675C245.629 253.224 246.562 253.518 247.518 253.518C248.474 253.518 249.408 253.224 250.191 252.675C251.422 251.82 252.891 251.374 254.391 251.401" stroke="#FBBC05" stroke-width="5" stroke-linecap="round" stroke-linejoin="round"/>
<path d="M263.28 267.039H197.313C194.152 267.039 191.59 269.601 191.59 272.762V301.64C191.59 304.8 194.152 307.363 197.313 307.363H263.28C266.441 307.363 269.003 304.8 269.003 301.64V272.762C269.003 269.601 266.441 267.039 263.28 267.039Z" fill="url(#paint3_linear)"/>
<path d="M191.24 276.531C195.142 276.531 195.142 279.331 199.045 279.331C202.947 279.331 202.947 276.531 206.846 276.531C210.745 276.531 210.749 279.331 214.651 279.331C218.554 279.331 218.554 276.531 222.453 276.531C226.352 276.531 226.355 279.331 230.258 279.331C234.16 279.331 234.16 276.531 238.063 276.531C241.965 276.531 241.965 279.331 245.868 279.331C249.77 279.331 249.77 276.531 253.673 276.531C257.575 276.531 257.575 279.331 261.478 279.331C265.38 279.331 265.38 276.531 269.286 276.531" stroke="#FBBC05" stroke-width="4.75" stroke-linecap="round" stroke-linejoin="round"/>
<path d="M197.362 267.039H197.309C195.791 267.039 194.336 267.642 193.263 268.715C192.189 269.788 191.587 271.244 191.587 272.762V301.64C191.587 303.158 192.189 304.613 193.263 305.686C194.336 306.76 195.791 307.363 197.309 307.363H216.776V290.563C216.77 287.925 215.718 285.397 213.85 283.535L197.362 267.039Z" fill="url(#paint4_linear)"/>
<path d="M190.88 225.858L161.622 226.149C158.142 226.184 155.35 229.033 155.385 232.512L156.069 301.266C156.103 304.745 158.952 307.537 162.431 307.503L191.69 307.212C195.169 307.177 197.961 304.329 197.927 300.849L197.243 232.095C197.208 228.616 194.359 225.824 190.88 225.858Z" fill="#BBBFC3"/>
<path d="M187.864 225.914L158.608 226.087C155.129 226.108 152.325 228.945 152.345 232.425L152.754 301.209C152.774 304.688 155.611 307.492 159.091 307.472L188.347 307.298C191.826 307.277 194.63 304.44 194.609 300.961L194.201 232.176C194.181 228.697 191.343 225.893 187.864 225.914Z" fill="#DFE1E5"/>
<path d="M167.171 230.299H181.174" stroke="#BABFC5" stroke-width="5" stroke-linecap="round" stroke-linejoin="round"/>
<path d="M187.169 301.01H159.995C158.918 301.01 157.884 300.583 157.121 299.821C156.358 299.06 155.928 298.028 155.925 296.95L155.813 238.084C155.813 237.004 156.242 235.969 157.005 235.205C157.769 234.442 158.804 234.013 159.883 234.013H187.061C188.14 234.013 189.174 234.441 189.937 235.204C190.699 235.967 191.128 237.001 191.128 238.08L191.24 296.95C191.237 298.028 190.807 299.06 190.044 299.821C189.281 300.583 188.247 301.01 187.169 301.01Z" fill="white"/>
<path d="M157.902 238.763L152.341 238.843L152.708 301.213C152.714 302.04 152.881 302.859 153.203 303.621C153.524 304.383 153.992 305.075 154.581 305.657C155.17 306.238 155.867 306.698 156.633 307.01C157.399 307.322 158.22 307.48 159.047 307.474L178.867 307.408V264.852C178.869 263.226 178.549 261.617 177.928 260.116C177.306 258.614 176.395 257.25 175.245 256.102L157.902 238.763Z" fill="url(#paint5_linear)"/>
<path d="M173.698 245.097C171.155 245.097 168.67 245.85 166.555 247.262C164.441 248.674 162.793 250.681 161.819 253.03C160.845 255.379 160.59 257.964 161.085 260.458C161.581 262.951 162.804 265.242 164.602 267.041C166.399 268.839 168.689 270.064 171.183 270.561C173.677 271.058 176.262 270.804 178.611 269.831C180.96 268.859 182.968 267.212 184.381 265.098C185.795 262.984 186.549 260.499 186.55 257.957C186.55 256.269 186.218 254.597 185.573 253.038C184.928 251.479 183.981 250.061 182.788 248.868C181.595 247.674 180.179 246.727 178.619 246.081C177.06 245.434 175.389 245.101 173.701 245.101L173.698 245.097ZM173.698 248.947C174.459 248.947 175.204 249.173 175.837 249.596C176.47 250.019 176.964 250.621 177.255 251.324C177.546 252.028 177.623 252.802 177.474 253.549C177.325 254.295 176.959 254.981 176.42 255.52C175.882 256.058 175.196 256.425 174.449 256.574C173.702 256.722 172.928 256.646 172.225 256.354C171.521 256.063 170.92 255.57 170.497 254.936C170.074 254.303 169.848 253.559 169.848 252.797C169.848 251.776 170.254 250.797 170.976 250.075C171.698 249.353 172.677 248.947 173.698 248.947ZM173.698 267.2C172.173 267.198 170.672 266.82 169.329 266.098C167.985 265.376 166.841 264.334 165.998 263.063C166.029 260.512 171.146 259.101 173.698 259.101C176.249 259.101 181.373 260.501 181.398 263.063C180.555 264.334 179.411 265.376 178.067 266.098C176.724 266.82 175.223 267.198 173.698 267.2Z" fill="#1976D2"/>
<path d="M164.44 288.28H176.05M164.44 279.065H172.196" stroke="#9A0036" stroke-width="5" stroke-linecap="round" stroke-linejoin="round"/>
<path d="M164.44 283.674H182.738" stroke="#DC004E" stroke-width="5" stroke-linecap="round" stroke-linejoin="round"/>
<path d="M165.987 263.07C166.659 264.082 167.522 264.952 168.53 265.63C169.537 266.309 170.668 266.782 171.858 267.023C173.048 267.264 174.274 267.269 175.466 267.036C176.658 266.803 177.792 266.338 178.805 265.667L178.868 265.625V264.851C178.866 263.137 178.509 261.441 177.818 259.871C176.492 259.405 175.102 259.147 173.698 259.108C171.15 259.108 166.019 260.519 165.987 263.07Z" fill="url(#paint6_linear)"/>
<path d="M173.698 256.668C174.288 256.669 174.87 256.532 175.399 256.27L175.245 256.108L170.244 251.1C169.952 251.687 169.815 252.34 169.847 252.995C169.878 253.65 170.076 254.286 170.422 254.843C170.768 255.4 171.25 255.859 171.824 256.178C172.397 256.496 173.042 256.662 173.698 256.662V256.668Z" fill="url(#paint7_linear)"/>
<path d="M173.698 267.2C172.173 267.198 170.672 266.82 169.329 266.098C167.985 265.376 166.841 264.334 165.998 263.063C166.029 260.511 171.147 259.101 173.698 259.101C175.102 259.136 176.491 259.389 177.818 259.85C177.231 258.516 176.412 257.296 175.399 256.248C174.678 256.603 173.865 256.722 173.073 256.591C172.28 256.46 171.549 256.085 170.981 255.517C170.413 254.95 170.036 254.219 169.904 253.427C169.772 252.635 169.89 251.821 170.244 251.1L166.463 247.316C163.81 249.118 161.926 251.847 161.181 254.967C160.436 258.088 160.885 261.373 162.439 264.179C163.993 266.986 166.54 269.109 169.579 270.134C172.619 271.158 175.932 271.01 178.868 269.716V265.625C177.341 266.656 175.54 267.205 173.698 267.2Z" fill="#2C66BF"/>
<path d="M178.867 284.549H164.44C164.208 284.549 163.986 284.457 163.822 284.293C163.658 284.129 163.565 283.907 163.565 283.674C163.565 283.442 163.658 283.22 163.822 283.056C163.986 282.892 164.208 282.799 164.44 282.799H178.867V284.549Z" fill="#9A0036"/>
<path d="M242.224 110.631H250.646C250.974 110.631 251.289 110.5 251.522 110.268C251.754 110.036 251.885 109.721 251.885 109.392C251.885 109.063 251.754 108.748 251.522 108.516C251.289 108.284 250.974 108.153 250.646 108.153H242.224C241.896 108.153 241.581 108.284 241.348 108.516C241.116 108.748 240.985 109.063 240.985 109.392C240.985 109.721 241.116 110.036 241.348 110.268C241.581 110.5 241.896 110.631 242.224 110.631Z" fill="#9A0036"/>
<path d="M246.312 110.712C248.441 110.712 250.166 108.986 250.166 106.858C250.166 104.73 248.441 103.004 246.312 103.004C244.184 103.004 242.459 104.73 242.459 106.858C242.459 108.986 244.184 110.712 246.312 110.712Z" fill="#9A0036"/>
<path d="M211.869 62.6075C213.654 85.6375 236.688 104.299 246.218 104.299C258.118 104.299 278.978 86.4495 280.763 62.6075C282.485 39.644 265.3 20.912 246.218 20.912C227.136 20.912 210.088 39.6475 211.869 62.6075Z" fill="#DC004E"/>
<path d="M242.55 100.628C254.926 97.947 271.204 81.07 271.6 58.2395C271.845 44.1485 268.054 31.9475 260.701 24.601C273.094 31.1565 282.033 45.741 280.766 62.6075C278.981 86.432 258.132 104.3 246.221 104.3C242.455 104.3 236.586 101.388 230.751 96.4455C235.322 99.655 239.62 101.262 242.55 100.628Z" fill="#9A0036"/>
<path d="M77.5145 235.983H152.684C154.355 235.983 155.957 236.647 157.139 237.829C158.32 239.01 158.984 240.613 158.984 242.283V300.986H77.5145C75.8436 300.986 74.2412 300.322 73.0597 299.14C71.8783 297.959 71.2145 296.356 71.2145 294.686V242.283C71.2145 240.613 71.8783 239.01 73.0597 237.829C74.2412 236.647 75.8436 235.983 77.5145 235.983Z" fill="#BBBFC3"/>
<path d="M75.4145 235.983H150.58C152.251 235.983 153.854 236.647 155.035 237.829C156.217 239.01 156.88 240.613 156.88 242.283V300.986H69.1145V242.283C69.1145 240.613 69.7783 239.01 70.9597 237.829C72.1412 236.647 73.7436 235.983 75.4145 235.983Z" fill="#DFE1E5"/>
<path d="M150.307 239.865H75.6945C74.1114 239.865 72.828 241.148 72.828 242.732V294.304C72.828 295.887 74.1114 297.171 75.6945 297.171H150.307C151.891 297.171 153.174 295.887 153.174 294.304V242.732C153.174 241.148 151.891 239.865 150.307 239.865Z" fill="white"/>
<path d="M158.991 300.978L68.523 300.999V307.751L152.691 307.734C154.362 307.734 155.964 307.07 157.146 305.888C158.327 304.707 158.991 303.104 158.991 301.433V300.978Z" fill="#BBBFC3"/>
<path d="M33.1135 300.996H121.184V301.451C121.184 303.122 120.52 304.724 119.339 305.906C118.157 307.087 116.555 307.751 114.884 307.751H39.4135C37.7426 307.751 36.1402 307.087 34.9587 305.906C33.7772 304.724 33.1135 303.122 33.1135 301.451V300.996Z" fill="#CDD0D5"/>
<path d="M81.9805 304.076H68.4775C67.6853 304.074 66.9261 303.759 66.366 303.199C65.8058 302.638 65.4903 301.879 65.4885 301.087C65.4885 301.063 65.4981 301.04 65.5151 301.023C65.5322 301.006 65.5554 300.996 65.5795 300.996H84.9625C84.9873 300.997 85.0108 301.007 85.0283 301.025C85.0459 301.042 85.0561 301.066 85.057 301.091C85.0316 301.89 84.6965 302.648 84.1224 303.205C83.5484 303.762 82.7804 304.075 81.9805 304.076Z" fill="#EFF0F2"/>
<path d="M136.906 260.144H89.0925C87.7471 260.144 86.6565 261.235 86.6565 262.58V275.988C86.6565 277.334 87.7471 278.424 89.0925 278.424H136.906C138.251 278.424 139.342 277.334 139.342 275.988V262.58C139.342 261.235 138.251 260.144 136.906 260.144Z" stroke="#34A853" stroke-width="5" stroke-miterlimit="10"/>
<path d="M95.1685 269.92L92.5365 269.136L92.939 267.823L95.571 268.796L95.4905 265.804H96.824L96.74 268.842L99.3265 267.883L99.729 269.206L97.0515 270L98.777 272.359L97.6955 273.182L96.075 270.669L94.507 273.119L93.4185 272.328L95.1685 269.92ZM104.65 269.92L102.018 269.136L102.417 267.823L105.049 268.796L104.965 265.8H106.298L106.211 268.838L108.797 267.879L109.2 269.202L106.526 270L108.251 272.359L107.17 273.182L105.549 270.669L103.978 273.119L102.9 272.328L104.65 269.92ZM114.1 269.92L111.468 269.136L111.87 267.823L114.502 268.796L114.45 265.8H115.783L115.696 268.838L118.286 267.879L118.685 269.202L115.997 270L117.722 272.359L116.641 273.182L115.02 270.669L113.452 273.119L112.35 272.328L114.1 269.92ZM123.585 269.92L120.953 269.136L121.355 267.823L123.987 268.796L123.9 265.8H125.233L125.146 268.838L127.75 267.9L128.152 269.223L125.468 270L127.193 272.359L126.112 273.182L124.491 270.669L122.923 273.119L121.835 272.328L123.585 269.92Z" fill="#34A853"/>
<defs>
<linearGradient id="paint0_linear" x1="163.79" y1="302.344" x2="163.79" y2="331.404" gradientUnits="userSpaceOnUse">
<stop stop-color="#676C72" stop-opacity="0.3"/>
<stop offset="0.96" stop-color="#F9F9FA" stop-opacity="0.01"/>
<stop offset="1" stop-color="white" stop-opacity="0"/>
</linearGradient>
<linearGradient id="paint1_linear" x1="222.978" y1="232.333" x2="237.608" y2="240.779" gradientUnits="userSpaceOnUse">
<stop offset="0.51" stop-color="white"/>
<stop offset="0.74" stop-color="#F2F3F5"/>
<stop offset="1" stop-color="#DFE1E5"/>
</linearGradient>
<linearGradient id="paint2_linear" x1="28518.8" y1="8957.43" x2="32604.1" y2="4950.7" gradientUnits="userSpaceOnUse">
<stop offset="0.51" stop-color="white"/>
<stop offset="0.74" stop-color="#F2F3F5"/>
<stop offset="1" stop-color="#DFE1E5"/>
</linearGradient>
<linearGradient id="paint3_linear" x1="194.352" y1="266.448" x2="266.242" y2="307.954" gradientUnits="userSpaceOnUse">
<stop offset="0.54" stop-color="white"/>
<stop offset="0.75" stop-color="#F2F3F5"/>
<stop offset="1" stop-color="#DFE1E5"/>
</linearGradient>
<linearGradient id="paint4_linear" x1="191.587" y1="287.199" x2="237.688" y2="287.199" gradientUnits="userSpaceOnUse">
<stop stop-color="#676C72" stop-opacity="0.5"/>
<stop offset="0.27" stop-color="#9A9DA1" stop-opacity="0.33"/>
<stop offset="0.73" stop-color="#E3E4E5" stop-opacity="0.09"/>
<stop offset="1" stop-color="white" stop-opacity="0"/>
</linearGradient>
<linearGradient id="paint5_linear" x1="152.341" y1="273.119" x2="178.867" y2="273.119" gradientUnits="userSpaceOnUse">
<stop stop-color="#676C72" stop-opacity="0.7"/>
<stop offset="0.27" stop-color="#70767C" stop-opacity="0.58"/>
<stop offset="0.77" stop-color="#888F97" stop-opacity="0.26"/>
<stop offset="1" stop-color="#959CA5" stop-opacity="0.1"/>
</linearGradient>
<linearGradient id="paint6_linear" x1="5772.15" y1="2280.27" x2="6748.32" y2="2280.27" gradientUnits="userSpaceOnUse">
<stop stop-color="#676C72" stop-opacity="0.7"/>
<stop offset="0.27" stop-color="#70767C" stop-opacity="0.58"/>
<stop offset="0.77" stop-color="#888F97" stop-opacity="0.26"/>
<stop offset="1" stop-color="#959CA5" stop-opacity="0.1"/>
</linearGradient>
<linearGradient id="paint7_linear" x1="2588.53" y1="1788.28" x2="3009.68" y2="1788.28" gradientUnits="userSpaceOnUse">
<stop stop-color="#676C72" stop-opacity="0.7"/>
<stop offset="0.27" stop-color="#70767C" stop-opacity="0.58"/>
<stop offset="0.77" stop-color="#888F97" stop-opacity="0.26"/>
<stop offset="1" stop-color="#959CA5" stop-opacity="0.1"/>
</linearGradient>
</defs>
</svg>
